<?xml version="1.0" encoding="UTF-8"?>
<svg version="1.1" xmlns="http://www.w3.org/2000/svg" width="512" height="512">
<path d="M0 0 C8.23654615 7.51182212 16.11305244 14.85773375 21.796875 24.55078125 C20.79269531 25.26621094 19.78851563 25.98164063 18.75390625 26.71875 C-10.76838134 48.08294263 -26.52646477 74.55505998 -32.890625 110.42578125 C-35.91902567 140.83865607 -26.38415445 170.00887831 -7.203125 193.55078125 C-6.59082031 194.32808594 -5.97851562 195.10539063 -5.34765625 195.90625 C5.37893219 208.82847275 19.94041751 217.21204924 34.796875 224.55078125 C25.17953134 268.22955037 -8.85564043 326.82424727 -47.203125 351.55078125 C-64.39135586 361.85167194 -81.90866223 363.60318011 -101.13134766 359.09863281 C-107.3384498 357.4572544 -113.26887578 354.97379527 -119.203125 352.55078125 C-153.05504599 338.73261105 -181.51868974 340.51655373 -214.95385742 354.22167969 C-226.26874448 358.82977532 -237.32001875 362.14556426 -249.640625 362.05078125 C-250.54095459 362.04433594 -251.44128418 362.03789063 -252.36889648 362.03125 C-273.19308504 361.46566854 -287.91246274 347.97605647 -301.82421875 333.8984375 C-321.97589602 312.45705289 -338.59073779 286.16141017 -351.20117188 259.64941406 C-351.87359517 258.24099529 -352.55472258 256.83670174 -353.24414062 255.43652344 C-370.67494415 219.95352576 -382.2012671 178.10238871 -383.203125 138.55078125 C-383.22358887 137.77025391 -383.24405273 136.98972656 -383.26513672 136.18554688 C-384.32751067 89.08989497 -373.08208473 44.51496811 -340.203125 9.55078125 C-319.25619326 -11.96228379 -288.09390503 -25.38435642 -258.125 -25.83032227 C-236.8923247 -25.7886438 -219.97943257 -19.86138641 -200.203125 -12.44921875 C-197.44660128 -11.42075538 -194.68955039 -10.39378707 -191.93115234 -9.37036133 C-190.328209 -8.77450859 -188.72684996 -8.17436871 -187.12744141 -7.5690918 C-169.55764365 -0.99780462 -154.82045656 -7.235675 -138.078125 -13.82421875 C-91.62021787 -31.80775536 -40.15634886 -34.39426922 0 0 Z " fill="#000000" transform="translate(430.203125,150.44921875)"/>
<path d="M0 0 C0.48113066 14.53384703 0.30494143 28.03285668 -4 42 C-4.20898926 42.6796582 -4.41797852 43.35931641 -4.63330078 44.05957031 C-9.53920502 59.42772876 -17.30131708 72.93511836 -28 85 C-28.63421875 85.77730469 -29.2684375 86.55460937 -29.921875 87.35546875 C-43.91460723 104.15252955 -65.6328671 114.54306787 -87 118 C-89.76794731 118.24771513 -92.53780125 118.41124296 -95.3125 118.5625 C-96.05306641 118.60568359 -96.79363281 118.64886719 -97.55664062 118.69335938 C-99.37091464 118.79870432 -101.1854355 118.89978316 -103 119 C-103.80068948 89.03778901 -97.14778099 63.44419122 -78 40 C-77.35289062 39.19949219 -76.70578125 38.39898437 -76.0390625 37.57421875 C-58.45895342 16.80098781 -27.68658118 -0.46926409 0 0 Z " fill="#000000" transform="translate(358,0)"/>
</svg>
