<?xml version="1.0" encoding="UTF-8"?>
<svg version="1.1" enable-background="new 0 0 512 512" height="512" viewBox="0 0 512 512" width="512"
    xmlns="http://www.w3.org/2000/svg">
    <path d="M0 0 C1.01790619 0.00215515 2.03581238 0.0043103 3.08456421 0.00653076 C17.69363523 0.05620146 32.02575853 0.30709809 46.375 3.3125 C47.34985352 3.51117676 48.32470703 3.70985352 49.32910156 3.91455078 C97.7109774 14.03517194 141.69928269 35.9516877 177.375 70.3125 C178.3640332 71.26068604 178.3640332 71.26068604 179.37304688 72.22802734 C188.86130305 81.37247479 197.6012044 90.66984009 205.375 101.3125 C206.23306152 102.46355017 207.09113451 103.61459177 207.94921875 104.765625 C213.98736829 112.95680614 219.34595521 121.47054105 224.375 130.3125 C224.73948242 130.94430176 225.10396484 131.57610352 225.47949219 132.22705078 C247.08534998 169.97532572 256.85198095 212.74189997 256.6875 255.9375 C256.68534485 256.95540619 256.6831897 257.97331238 256.68096924 259.02206421 C256.63129854 273.63113523 256.38040191 287.96325853 253.375 302.3125 C253.07698486 303.77478027 253.07698486 303.77478027 252.77294922 305.26660156 C242.65232806 353.6484774 220.7358123 397.63678269 186.375 433.3125 C185.74287598 433.97185547 185.11075195 434.63121094 184.45947266 435.31054688 C175.31502521 444.79880305 166.01765991 453.5387044 155.375 461.3125 C154.22394983 462.17056152 153.07290823 463.02863451 151.921875 463.88671875 C143.73224019 469.92427396 135.22961724 475.30707302 126.375 480.3125 C125.66778809 480.7146875 124.96057617 481.116875 124.23193359 481.53125 C101.09654164 494.5566741 75.92537591 503.30551461 49.9375 508.625 C49.21860596 508.77235596 48.49971191 508.91971191 47.7590332 509.0715332 C33.08339502 511.86090125 18.55831162 512.66142619 3.64770508 512.62817383 C0.70811513 512.6250221 -2.2304558 512.64854926 -5.16992188 512.67382812 C-18.54306192 512.71848737 -31.43916711 511.51301542 -44.625 509.3125 C-46.33055054 509.03031616 -46.33055054 509.03031616 -48.07055664 508.74243164 C-91.33802759 500.97044532 -132.38793216 480.98345309 -165.625 452.3125 C-166.37007813 451.67828125 -167.11515625 451.0440625 -167.8828125 450.390625 C-181.38779833 438.57948485 -194.05918743 425.82889772 -204.625 411.3125 C-205.48149066 410.16255169 -206.33826433 409.01281411 -207.1953125 407.86328125 C-213.23534209 399.67315742 -218.61867614 391.16870382 -223.625 382.3125 C-224.0271875 381.60528809 -224.429375 380.89807617 -224.84375 380.16943359 C-237.8691741 357.03404164 -246.61801461 331.86287591 -251.9375 305.875 C-252.08485596 305.15610596 -252.23221191 304.43721191 -252.3840332 303.6965332 C-255.35789088 288.05024391 -255.99800362 272.57681954 -255.9375 256.6875 C-255.93534485 255.66959381 -255.9331897 254.65168762 -255.93096924 253.60293579 C-255.88129854 238.99386477 -255.63040191 224.66174147 -252.625 210.3125 C-252.42632324 209.33764648 -252.22764648 208.36279297 -252.02294922 207.35839844 C-241.90232806 158.9765226 -219.9858123 114.98821731 -185.625 79.3125 C-184.99287598 78.65314453 -184.36075195 77.99378906 -183.70947266 77.31445312 C-174.56502521 67.82619695 -165.26765991 59.0862956 -154.625 51.3125 C-153.47394983 50.45443848 -152.32290823 49.59636549 -151.171875 48.73828125 C-142.98224019 42.70072604 -134.47961724 37.31792698 -125.625 32.3125 C-124.91778809 31.9103125 -124.21057617 31.508125 -123.48193359 31.09375 C-100.34654164 18.0683259 -75.17537591 9.31948539 -49.1875 4 C-48.46860596 3.85264404 -47.74971191 3.70528809 -47.0090332 3.5534668 C-31.36274391 0.57960912 -15.88931954 -0.06050362 0 0 Z M-121.625 146.3125 C-133.38328432 160.78597796 -137.32768807 176.90059693 -135.625 195.3125 C-133.51389657 210.59204369 -124.96909924 224.7599215 -113.140625 234.5859375 C-98.24452395 244.80965903 -82.33339267 249.21533402 -64.2734375 246.87890625 C-50.98243801 244.27568129 -39.98872107 237.99448708 -30.625 228.3125 C-29.95597656 227.62929687 -29.28695312 226.94609375 -28.59765625 226.2421875 C-24.69894802 222.03850633 -19.625 216.342249 -19.625 210.3125 C-18.84898437 210.34915771 -18.07296875 210.38581543 -17.2734375 210.42358398 C-13.72436931 210.56996187 -10.17593705 210.66040375 -6.625 210.75 C-5.40425781 210.80865234 -4.18351563 210.86730469 -2.92578125 210.92773438 C3.17602243 211.0431739 7.31395281 211.10173417 12 206.91015625 C12.56976563 206.28761963 13.13953125 205.66508301 13.7265625 205.02368164 C15.48096876 203.20249777 17.06997441 202.31119763 19.375 201.3125 C20.17164063 202.17875 20.96828125 203.045 21.7890625 203.9375 C22.858554 205.06328052 23.92891245 206.18823789 25 207.3125 C25.52207031 207.88484375 26.04414063 208.4571875 26.58203125 209.046875 C29.25005008 211.81370934 30.65485359 213.18010041 34.51953125 213.890625 C37.78668216 213.22914985 39.07299043 212.37360176 41.4375 210.0625 C44.31109223 207.31231357 47.24162066 204.76707099 50.375 202.3125 C51.02726563 203.034375 51.67953125 203.75625 52.3515625 204.5 C53.22554687 205.428125 54.09953125 206.35625 55 207.3125 C55.85851562 208.240625 56.71703125 209.16875 57.6015625 210.125 C60.19957774 212.51600177 60.19957774 212.51600177 63.390625 212.90625 C67.25409662 212.1376012 68.75544915 210.60006889 71.5 207.8125 C74.0078125 205.28125 74.0078125 205.28125 76.375 203.3125 C81.30681394 203.3125 81.92704803 204.35518057 85.375 207.6875 C92.1178994 214.16315033 96.4775951 214.8664397 105.58959961 214.87817383 C110.09517023 214.74147624 113.37824151 214.53008156 116.9375 211.5 C118.7086477 209.55618454 118.7086477 209.55618454 120.375 207.3125 C121.47328125 206.02666016 121.47328125 206.02666016 122.59375 204.71484375 C124.15512627 202.86461287 125.68554649 200.9878062 127.18359375 199.0859375 C128.59029108 197.30562537 130.03833596 195.5568008 131.53515625 193.8515625 C132.18355469 193.09617187 132.83195312 192.34078125 133.5 191.5625 C134.37011719 190.58023438 134.37011719 190.58023438 135.2578125 189.578125 C136.96475003 186.11650343 136.39549528 183.97827913 135.375 180.3125 C133.19257206 177.36905362 133.19257206 177.36905362 130.3125 174.8125 C129.81733887 174.34255615 129.32217773 173.8726123 128.81201172 173.38842773 C127.35015409 172.01135312 125.86292506 170.66136664 124.375 169.3125 C123.60542969 168.61253906 122.83585937 167.91257813 122.04296875 167.19140625 C120.17715265 165.53250666 118.29687967 163.9059572 116.375 162.3125 C115.77532913 161.63020325 115.17565826 160.94790649 114.55781555 160.24493408 C109.49261546 157.16961755 104.40945463 157.7902158 98.59838867 157.85839844 C97.30043365 157.85781433 96.00247864 157.85723022 94.66519165 157.85662842 C91.11372549 157.85548227 87.56280138 157.87897468 84.01146102 157.90692425 C80.29724496 157.93195491 76.58301603 157.9342812 72.86872864 157.93902588 C65.83870599 157.95145082 58.80893261 157.98426572 51.77901965 158.02442384 C43.7742545 158.06915669 35.76947734 158.09113237 27.76461828 158.11120558 C11.30126634 158.15299893 -5.161835 158.22334139 -21.625 158.3125 C-21.92897705 157.52858887 -22.2329541 156.74467773 -22.54614258 155.93701172 C-27.41783124 144.08576638 -38.69886299 136.04996921 -49.625 130.3125 C-75.05325329 119.82786476 -103.05108023 125.73440348 -121.625 146.3125 Z M17.02758789 277.97265625 C13.57577257 279.71619629 10.46945598 279.76197722 6.6875 279.74609375 C5.57906738 279.75395653 5.57906738 279.75395653 4.44824219 279.76197815 C2.8849411 279.76838563 1.32159171 279.76707782 -0.24169922 279.75854492 C-2.59043682 279.75012392 -4.93666421 279.77866354 -7.28515625 279.81054688 C-16.79830343 279.85381651 -24.59420738 278.53391976 -33.625 275.3125 C-51.79439659 271.18987511 -69.21672272 273.83793257 -85.18359375 283.39453125 C-85.89708984 283.84892578 -85.89708984 283.84892578 -86.625 284.3125 C-86.49479167 282.359375 -86.36458333 280.40625 -86.234375 278.453125 C-86.80109453 275.34750199 -88.20653959 274.2856582 -90.625 272.3125 C-93.29023637 271.71060162 -93.29023637 271.71060162 -96.24804688 271.79492188 C-97.37601685 271.78231323 -98.50398682 271.76970459 -99.6661377 271.75671387 C-100.87974976 271.76481079 -102.09336182 271.77290771 -103.34375 271.78125 C-104.59377808 271.7774231 -105.84380615 271.77359619 -107.13171387 271.76965332 C-109.77505905 271.76693086 -112.41692486 271.77230047 -115.06005859 271.79101562 C-118.44317491 271.81380646 -121.82502197 271.80068017 -125.20809174 271.77672577 C-128.44085633 271.75877316 -131.67346882 271.77135299 -134.90625 271.78125 C-136.72666809 271.76910461 -136.72666809 271.76910461 -138.5838623 271.75671387 C-140.27581726 271.77562683 -140.27581726 271.77562683 -142.00195312 271.79492188 C-143.48943054 271.79969543 -143.48943054 271.79969543 -145.00695801 271.80456543 C-147.68676937 272.16939913 -147.68676937 272.16939913 -149.9440918 273.70654297 C-152.58167146 277.7956534 -152.18197379 281.75785375 -152.14257812 286.52539062 C-152.1495874 287.56318161 -152.15659668 288.6009726 -152.16381836 289.67021179 C-152.18143473 293.10332942 -152.16976211 296.53562388 -152.15625 299.96875 C-152.15894385 302.3524186 -152.16282538 304.73608614 -152.16784668 307.11975098 C-152.17374669 312.11656146 -152.16516222 317.11308602 -152.14648438 322.10986328 C-152.12369499 328.51948047 -152.13681531 334.92842773 -152.16077423 341.33802032 C-152.17521836 346.26048849 -152.17063249 351.18279746 -152.16026306 356.10527039 C-152.15759196 358.46880675 -152.16087893 360.83235751 -152.17018127 363.19587708 C-152.18032363 366.49751148 -152.16487693 369.79805627 -152.14257812 373.09960938 C-152.15067505 374.07947311 -152.15877197 375.05933685 -152.16711426 376.06889343 C-152.12531546 381.28949163 -152.12531546 381.28949163 -149.93736267 385.91746521 C-147.11822756 387.61823283 -145.39560845 387.82496768 -142.10961914 387.84594727 C-141.00489761 387.8617836 -139.90017609 387.87761993 -138.76197815 387.89393616 C-136.97907631 387.88649635 -136.97907631 387.88649635 -135.16015625 387.87890625 C-133.93469589 387.88510483 -132.70923553 387.89130341 -131.44664001 387.89768982 C-128.85514114 387.9047936 -126.26359669 387.90160438 -123.67211914 387.88891602 C-119.70568836 387.87506352 -115.74162162 387.90910275 -111.77539062 387.94726562 C-109.25781192 387.94821691 -106.74023026 387.94635749 -104.22265625 387.94140625 C-102.44279076 387.96129356 -102.44279076 387.96129356 -100.62696838 387.98158264 C-93.93608726 388.10744979 -93.93608726 388.10744979 -88.35327148 384.9387207 C-86.33050754 381.8649996 -86.29443034 380.54277541 -86.625 376.9375 C-86.5 374.0546875 -86.5 374.0546875 -85.625 371.3125 C-81.45378503 367.65027257 -76.39242646 364.42879324 -70.68725586 364.25268555 C-64.08491981 364.8221572 -57.60968077 366.61840584 -51.1807251 368.15179443 C-36.43490532 371.65255509 -21.65970309 374.34513365 -6.625 376.3125 C-5.88701172 376.415625 -5.14902344 376.51875 -4.38867188 376.625 C2.43328018 377.5004109 9.25495143 377.53301481 16.125 377.5625 C17.3109375 377.583125 18.496875 377.60375 19.71875 377.625 C32.69651606 377.68167147 42.47008054 375.80677801 52.65869141 367.64208984 C56.21058509 364.89050904 59.93515649 362.37407677 63.625 359.8125 C65.36599542 358.59651164 67.10687771 357.38036131 68.84765625 356.1640625 C75.56548699 351.48022492 82.2913703 346.80796765 89.01660156 342.13476562 C94.6518724 338.21606163 100.27309375 334.27873386 105.875 330.3125 C112.60193313 325.55001859 119.35851349 320.83110307 126.125 316.125 C127.10750732 315.44091064 128.09001465 314.75682129 129.10229492 314.05200195 C133.27583416 311.14886932 137.45198183 308.25119655 141.66015625 305.3984375 C142.26956055 304.98360107 142.87896484 304.56876465 143.50683594 304.14135742 C145.04966256 303.09360692 146.59688743 302.05234055 148.14453125 301.01171875 C150.59378563 299.33718141 150.59378563 299.33718141 152.375 296.3125 C153.0211265 289.95892274 151.9657695 285.61597206 148.375 280.3125 C144.12021142 275.81458064 138.0592137 273.50308155 131.8972168 273.18432617 C129.36484254 273.26684703 126.84139591 273.40728658 124.3125 273.5625 C115.41891554 273.85811591 115.41891554 273.85811591 111.6171875 271.87109375 C109.6875 270 109.6875 270 108.0234375 268.0703125 C104.37328994 264.17797505 99.03754885 263.49386897 93.9375 262.9375 C89.94017289 263.35827127 86.48471898 264.41535548 82.70703125 265.75390625 C80.11927257 266.37375465 78.83782014 266.26214675 76.375 265.3125 C75.611875 264.673125 74.84875 264.03375 74.0625 263.375 C57.7149979 250.82924258 30.78302175 268.24442429 17.02758789 277.97265625 Z " fill="#000000" transform="translate(255.625,-0.3125)"/>
    <path d="M0 0 C-0.38362072 2.31399039 -0.65939193 3.66521481 -2.35668945 5.33349609 C-2.93636475 5.72617676 -3.51604004 6.11885742 -4.11328125 6.5234375 C-5.1038855 7.20768799 -5.1038855 7.20768799 -6.11450195 7.90576172 C-6.83984131 8.39061035 -7.56518066 8.87545898 -8.3125 9.375 C-9.87509572 10.44777726 -11.43759171 11.52069978 -13 12.59375 C-14.23169922 13.43099609 -14.23169922 13.43099609 -15.48828125 14.28515625 C-19.62409597 17.10883069 -23.71504113 19.99609678 -27.8125 22.875 C-29.50619747 24.06034312 -31.20021046 25.24523552 -32.89453125 26.4296875 C-37.93089952 29.9513947 -42.96560166 33.47547751 -48 37 C-49.66665902 38.16667759 -51.33332569 39.33334425 -53 40.5 C-53.825 41.0775 -54.65 41.655 -55.5 42.25 C-59.25 44.875 -59.25 44.875 -63 47.5 C-63.82612793 48.07838623 -64.65225586 48.65677246 -65.50341797 49.25268555 C-67.15832398 50.41092555 -68.81359335 51.56864657 -70.46923828 52.72583008 C-74.81907457 55.76711278 -79.16091085 58.81904963 -83.4921875 61.88671875 C-84.39324219 62.52287109 -85.29429687 63.15902344 -86.22265625 63.81445312 C-87.94376244 65.02987347 -89.66265208 66.24844099 -91.37890625 67.47070312 C-111.26397915 81.48885782 -137.44388306 76.2352895 -160.24072266 72.46386719 C-173.57031764 70.14306265 -186.74236894 67.27181319 -199.81835938 63.79174805 C-207.75455887 61.76227699 -212.80163778 61.78415514 -220.21362305 65.56103516 C-221.55954781 66.24391098 -221.55954781 66.24391098 -222.93266296 66.94058228 C-223.61488419 67.29019012 -224.29710541 67.63979797 -225 68 C-225.27937316 60.15376657 -225.47171865 52.30881766 -225.60424805 44.45874023 C-225.65330688 41.78807446 -225.73443406 39.12390988 -225.82983398 36.45385742 C-225.9636116 32.61293756 -226.02571282 28.77642127 -226.07421875 24.93359375 C-226.13099289 23.74479111 -226.18776703 22.55598846 -226.2462616 21.3311615 C-226.24881372 17.88887057 -226.13109755 15.25540946 -225 12 C-221.69140404 8.84299277 -218.12730982 6.91195601 -214 5 C-212.90945312 4.42507813 -211.81890625 3.85015625 -210.6953125 3.2578125 C-209.84710938 2.88398438 -208.99890625 2.51015625 -208.125 2.125 C-207.26132813 1.73570312 -206.39765625 1.34640625 -205.5078125 0.9453125 C-200.37501618 -0.98947988 -195.32054309 -1.26935454 -189.875 -1.375 C-189.19824219 -1.41238281 -188.52148438 -1.44976562 -187.82421875 -1.48828125 C-182.89548559 -1.56679204 -178.73260129 -0.67029064 -174.02507019 0.79122925 C-160.01215683 5.05738968 -146.0949686 4.61147194 -131.5625 4.5 C-126.43834495 4.46107187 -121.31566203 4.45510458 -116.19140625 4.46875 C-114.47069664 4.43932312 -114.47069664 4.43932312 -112.71522522 4.40930176 C-104.32383447 4.43606205 -95.6316783 5.8595447 -89.14820862 11.65539551 C-87.75 13.3125 -87.75 13.3125 -86 16 C-90.19631507 17.48374156 -94.30703467 18.54891094 -98.67626953 19.38867188 C-99.31445618 19.51254776 -99.95264282 19.63642365 -100.61016846 19.76405334 C-101.98479186 20.03040717 -103.35976492 20.29496166 -104.7350502 20.55787659 C-106.91335365 20.97459262 -109.09055745 21.39667041 -111.26754761 21.82019043 C-117.45345007 23.02255889 -123.64130573 24.21474288 -129.82958984 25.40478516 C-133.62405957 26.1348648 -137.41739083 26.87063825 -141.21010971 27.60975647 C-142.65214391 27.88950393 -144.09462054 28.16698082 -145.53754044 28.44212341 C-147.5535993 28.82656284 -149.56814616 29.21816701 -151.58251953 29.61132812 C-153.30077438 29.94203308 -153.30077438 29.94203308 -155.05374146 30.27941895 C-157.68290727 30.92244706 -159.73008921 31.53921497 -162 33 C-163.16242542 36.39785892 -162.94484589 38.6100949 -162 42 C-152.39747145 42.54718265 -143.34094451 40.87601121 -133.96875 39.0703125 C-132.32605146 38.75795636 -130.68335123 38.44560913 -129.04064941 38.13327026 C-125.60656976 37.47700078 -122.17445288 36.81132237 -118.74316406 36.140625 C-115.26532412 35.46252961 -111.78472054 34.80381001 -108.29980469 34.16308594 C-81.775333 29.54597172 -81.775333 29.54597172 -57.65374756 18.07507324 C-55.38645077 16.60114205 -53.01860832 15.34496294 -50.62890625 14.08203125 C-49.2724098 13.32736515 -47.91688217 12.57095401 -46.5625 11.8125 C-45.45406738 11.20051758 -45.45406738 11.20051758 -44.32324219 10.57617188 C-41.05008608 8.75917803 -37.85379248 6.90639258 -34.69921875 4.88671875 C-25.28446277 -1.1362311 -10.77057975 -5.38528988 0 0 Z " fill="#000000" transform="translate(394,288)"/>
    <path d="M0 0 C6.78330645 5.40733326 11.11364391 11.81074101 14.87109375 19.5625 C16.06393799 22.06609886 16.06393799 22.06609886 19.1953125 22.75 C20.98288137 22.82740014 22.77332031 22.84431847 24.56248474 22.82746887 C25.67676346 22.81991577 26.79104218 22.81236267 27.93908691 22.80458069 C29.77412781 22.78493507 29.77412781 22.78493507 31.64624023 22.76489258 C33.62373025 22.75049914 35.60122054 22.73612721 37.5787164 22.72255933 C38.98268105 22.71270217 40.38664135 22.70220697 41.79059684 22.69112074 C46.95799207 22.65071708 52.12519841 22.6300145 57.29273987 22.6212616 C58.04348185 22.61997798 58.79422384 22.61869437 59.56771559 22.61737186 C62.66567186 22.61249133 65.76362858 22.60831561 68.86158645 22.60458529 C77.64284716 22.59330261 86.42302117 22.56270443 95.20385742 22.47241211 C102.18216112 22.40078137 109.1591843 22.37200573 116.13784558 22.39257544 C119.8270071 22.40187356 123.51331026 22.39025175 127.20199394 22.32660866 C152.63349352 21.90875209 152.63349352 21.90875209 159.5416193 28.13766766 C161.74170797 30.54279462 163.50907129 32.95870141 165.1953125 35.75 C162.73050664 42.148795 159.48040336 47.28436135 154.1953125 51.75 C149.45435641 53.52403518 145.96743815 53.38600207 141.1953125 51.75 C136.2221253 48.45832628 132.27860568 44.04757679 128.1953125 39.75 C125.13863321 37.71221381 123.82949306 37.27620937 120.24609375 37.859375 C115.68096752 39.8419441 112.45124852 44.09537793 109.1953125 47.75 C105.20706339 46.01711447 102.99878085 43.53073051 100.171875 40.30859375 C97.45173861 38.16366406 95.65235242 37.7674598 92.1953125 37.75 C89.45019195 39.50632904 89.45019195 39.50632904 87.0703125 42.0625 C81.87841953 47.21395767 81.87841953 47.21395767 78.1953125 48.75 C77.48246094 47.96753906 76.76960937 47.18507812 76.03515625 46.37890625 C75.06854102 45.35598334 74.10104594 44.33389135 73.1328125 43.3125 C72.66681641 42.79623047 72.20082031 42.27996094 71.72070312 41.74804688 C69.10076742 39.02117502 67.2354014 37.76157161 63.58203125 36.70703125 C59.72244542 36.75599947 58.74722511 37.19808739 56.0703125 39.875 C55.44898438 40.47570312 54.82765625 41.07640625 54.1875 41.6953125 C52.08563542 43.74938763 52.08563542 43.74938763 50.3359375 46.44921875 C45.14118839 50.25482475 39.33645642 49.45327579 33.0703125 49.4375 C30.52597525 49.45405475 27.98167318 49.47841805 25.4375 49.51171875 C24.3119873 49.51131592 23.18647461 49.51091309 22.02685547 49.51049805 C18.99059194 49.53793654 18.99059194 49.53793654 16.1953125 51.75 C15.06561884 53.90356791 14.01341358 56.09826673 13.0078125 58.3125 C7.17215774 70.47011408 -1.63716006 79.04775007 -14.5546875 83.625 C-27.86588957 87.4720318 -41.42342596 86.37796527 -53.7421875 79.875 C-65.34485473 73.01429242 -73.61497292 62.70065494 -77.1171875 49.5 C-79.99047111 33.86270652 -76.53146615 19.64232154 -67.6796875 6.625 C-49.49900804 -13.49952569 -21.59433786 -15.04831907 0 0 Z M-52.88671875 16.79296875 C-58.38914607 23.33796125 -61.51677794 31.04864203 -61.08203125 39.69140625 C-59.74456919 49.61876545 -55.39144165 57.3690895 -47.4921875 63.625 C-41.40163106 67.58044003 -34.01245123 69.5222604 -26.8046875 68.75 C-16.12899559 66.39280723 -9.37961213 61.44399526 -2.8046875 52.75 C1.31669827 46.19138278 0.94999676 38.21965897 0.1953125 30.75 C-1.82866772 22.66612661 -7.31137756 16.75587135 -13.4921875 11.4375 C-27.26705078 4.42011682 -41.69767226 5.81384808 -52.88671875 16.79296875 Z " fill="#000000" transform="translate(210.8046875,148.25)"/>
    <path d="M0 0 C12.87 0 25.74 0 39 0 C39 29.37 39 58.74 39 89 C26.13 89 13.26 89 0 89 C0 59.63 0 30.26 0 0 Z " fill="#000000" transform="translate(117,285)"/>
    <path d="M0 0 C3.94182075 2.67147093 6.47176786 6.07401841 8.1875 10.5 C9.07334485 15.46539351 8.85692948 19.86399152 6.5 24.375 C3.83112202 27.98159186 1.2042462 30.4916269 -2.8125 32.5 C-10.18508109 33.18243922 -15.94581489 33.26668165 -21.8125 28.5 C-25.21171073 24.28748118 -26.71877696 19.93593656 -26.8125 14.5 C-25.77242428 8.24859753 -23.48116159 4.50157494 -18.53125 0.59375 C-13.26937705 -2.7547146 -5.53043166 -2.75913843 0 0 Z " fill="#000000" transform="translate(189.8125,170.5)"/>
    <path d="M0 0 C1.299375 -0.03867187 1.299375 -0.03867187 2.625 -0.078125 C5.42903194 0.30927415 6.26286782 1.07858478 8 3.25 C4.11093497 5.49715843 0.21119423 7.72455447 -3.69628906 9.93945312 C-5.3205321 10.86346082 -6.94202891 11.7923041 -8.56152344 12.72460938 C-11.24269265 14.26591539 -13.93293851 15.79031416 -16.625 17.3125 C-17.48963867 17.81370361 -18.35427734 18.31490723 -19.24511719 18.83129883 C-20.06399414 19.29044678 -20.88287109 19.74959473 -21.7265625 20.22265625 C-22.45439941 20.63781494 -23.18223633 21.05297363 -23.93212891 21.48071289 C-26.46676188 22.42364424 -27.54541881 22.36278185 -30 21.25 C-31.69968841 19.06243807 -32.73478913 16.73523563 -34 14.25 C-30.35341963 12.41434014 -26.70552447 10.58132285 -23.05639648 8.75073242 C-21.81547308 8.12775807 -20.57490981 7.5040658 -19.3347168 6.87963867 C-17.55091936 5.98166775 -15.76571153 5.08650027 -13.98046875 4.19140625 C-12.90692139 3.65201416 -11.83337402 3.11262207 -10.72729492 2.55688477 C-6.99639776 0.76908667 -4.10222454 0.07325401 0 0 Z " fill="#000000" transform="translate(349,276.75)"/>
    <path d="M0 0 C0.99386719 0.00902344 1.98773438 0.01804687 3.01171875 0.02734375 C4.15060547 0.04474609 4.15060547 0.04474609 5.3125 0.0625 C2.55350723 3.41049122 -1.16116097 4.99940402 -5 6.8125 C-5.65162109 7.14121094 -6.30324219 7.46992188 -6.97460938 7.80859375 C-11.2813938 9.85205303 -14.10467774 10.49759353 -18.6875 9.0625 C-19.3475 8.4025 -20.0075 7.7425 -20.6875 7.0625 C-18.75124902 6.08086578 -16.81345461 5.10227546 -14.875 4.125 C-13.79605469 3.57972656 -12.71710938 3.03445313 -11.60546875 2.47265625 C-7.46716652 0.47275383 -4.55162535 -0.05354853 0 0 Z " fill="#000000" transform="translate(315.6875,272.9375)"/>
</svg>
