<?xml version="1.0" encoding="UTF-8"?>
<svg version="1.1" xmlns="http://www.w3.org/2000/svg" width="512" height="512">
<path d="M0 0 C1.27109619 0.00273422 1.27109619 0.00273422 2.56787109 0.00552368 C16.51368777 0.05577445 30.13301133 0.77377992 43.875 3.3125 C44.83744629 3.48942383 45.79989258 3.66634766 46.79150391 3.84863281 C73.13156298 8.84974585 98.21802156 17.69743868 121.875 30.3125 C122.52388184 30.65361816 123.17276367 30.99473633 123.84130859 31.34619141 C155.11451016 47.87994264 183.97402578 72.75080451 204.875 101.3125 C205.52009521 102.18237549 205.52009521 102.18237549 206.17822266 103.06982422 C228.67416608 133.46408247 243.83302124 167.37429177 251.875 204.3125 C252.09945801 205.30008301 252.32391602 206.28766602 252.55517578 207.30517578 C259.45225594 238.93223176 259.20051838 276.80114316 251.875 308.3125 C251.65537598 309.31587402 251.43575195 310.31924805 251.20947266 311.35302734 C244.80323268 340.3919283 234.01286584 368.25127053 217.875 393.3125 C217.44751465 393.97652832 217.0200293 394.64055664 216.57958984 395.32470703 C206.74007407 410.42849133 195.31073038 424.28193648 182.875 437.3125 C182.04355469 438.18519531 181.21210938 439.05789063 180.35546875 439.95703125 C174.55706632 445.90153516 168.40154823 451.18638519 161.875 456.3125 C160.88886719 457.10398437 159.90273438 457.89546875 158.88671875 458.7109375 C124.35534411 485.97481237 84.0775446 502.7718172 40.875 510.3125 C39.29211182 510.59504639 39.29211182 510.59504639 37.67724609 510.88330078 C25.5412256 512.78555697 13.38222235 512.71051231 1.125 512.6875 C-0.57825439 512.68618576 -0.57825439 512.68618576 -2.31591797 512.68484497 C-19.24556903 512.64170887 -35.55645824 512.09905854 -52.125 508.3125 C-53.23584961 508.06580566 -54.34669922 507.81911133 -55.49121094 507.56494141 C-94.0928721 498.7947732 -129.10655707 481.84834191 -160.125 457.3125 C-160.6622168 456.89242676 -161.19943359 456.47235352 -161.75292969 456.03955078 C-176.57738678 444.35444537 -190.88995085 430.49947252 -202.125 415.3125 C-202.59921387 414.68762695 -203.07342773 414.06275391 -203.56201172 413.41894531 C-231.49684525 376.55560036 -249.42751901 333.25213693 -255.125 287.3125 C-255.22071289 286.54542725 -255.31642578 285.77835449 -255.41503906 284.98803711 C-256.41186838 275.72806445 -256.36864144 266.42779455 -256.375 257.125 C-256.37567474 256.23644318 -256.37634949 255.34788635 -256.37704468 254.43240356 C-256.35991001 240.19413325 -255.69832576 226.34696383 -253.125 212.3125 C-252.96402832 211.39404297 -252.80305664 210.47558594 -252.63720703 209.52929688 C-248.57939479 186.96770491 -241.26069618 164.87308387 -231.125 144.3125 C-230.5669165 143.16974609 -230.5669165 143.16974609 -229.99755859 142.00390625 C-221.56008546 124.89721914 -211.17881027 109.08887148 -199.125 94.3125 C-198.67189453 93.75643066 -198.21878906 93.20036133 -197.75195312 92.62744141 C-187.06184133 79.6167395 -175.46344556 67.62733419 -162.125 57.3125 C-160.84851588 56.29612835 -159.57250814 55.27915824 -158.296875 54.26171875 C-148.37688191 46.42610031 -138.12298458 39.54176567 -127.125 33.3125 C-126.31047363 32.85101563 -125.49594727 32.38953125 -124.65673828 31.9140625 C-86.39957293 10.51310618 -43.75390901 -0.19722111 0 0 Z M-156.59367466 164.03465939 C-158.39070179 167.88124139 -158.62552327 170.51854399 -158.62620544 174.75794983 C-158.63173984 175.48642087 -158.63727424 176.21489191 -158.64297634 176.96543783 C-158.65654046 179.3953605 -158.64163768 181.82424842 -158.62670898 184.25415039 C-158.63049369 186.00059952 -158.63599498 187.74704565 -158.64308167 189.4934845 C-158.6570328 194.22897897 -158.64586935 198.96410999 -158.62937045 203.69958425 C-158.61551214 208.65669488 -158.62198084 213.61378458 -158.62550354 218.57090759 C-158.62820479 226.89409233 -158.6147365 235.21713279 -158.59155273 243.5402832 C-158.56493482 253.16293192 -158.563199 262.78533953 -158.5749411 272.40801245 C-158.58571947 281.66648891 -158.5795319 290.92487816 -158.56538582 300.1833477 C-158.55962742 304.12304178 -158.55970753 308.06267201 -158.56445122 312.00236702 C-158.56922291 316.6407711 -158.55911134 321.27891109 -158.53749657 325.91726494 C-158.53193147 327.61963383 -158.53146086 329.32202812 -158.53644943 331.0243988 C-158.54240439 333.34790367 -158.5298939 335.67060163 -158.51268005 337.99403381 C-158.51025016 339.29426515 -158.50782026 340.59449648 -158.50531673 341.93412876 C-157.94132809 346.94406615 -156.32267075 349.19220128 -152.68672848 352.59325409 C-147.50234335 355.09575617 -142.82497052 354.86505977 -137.13734436 354.82043457 C-135.31171507 354.82979451 -135.31171507 354.82979451 -133.44920439 354.83934355 C-130.07829003 354.85252759 -126.70826855 354.84779743 -123.33740866 354.83539867 C-119.69927835 354.82634473 -116.0612258 354.84031966 -112.42311096 354.85131836 C-105.29874388 354.86910509 -98.17454537 354.8652628 -91.05017168 354.8536678 C-85.25945644 354.84463363 -79.46878843 354.8434094 -73.67806816 354.84776306 C-72.44173269 354.84868246 -72.44173269 354.84868246 -71.18042074 354.84962043 C-69.50600405 354.85089934 -67.83158737 354.85219619 -66.15717071 354.8535108 C-50.45567058 354.86491723 -34.75426387 354.85180229 -19.05277907 354.83030933 C-5.58274667 354.8124416 7.88714783 354.81553963 21.35717773 354.83398438 C37.00100222 354.85539572 52.64474481 354.86381508 68.28858191 354.85153532 C69.95713872 354.85026113 71.62569555 354.84900365 73.2942524 354.84776306 C74.11520234 354.84714596 74.93615229 354.84652886 75.78197951 354.84589306 C81.56463841 354.8424407 87.34724532 354.84826611 93.12989616 354.85768127 C100.17871939 354.86890572 107.22736448 354.86585205 114.27616733 354.8445583 C117.87202408 354.83405325 121.46758393 354.8299164 125.06343842 354.84315491 C128.96258003 354.85729274 132.86123659 354.84039967 136.76036072 354.82043457 C138.46289069 354.8338189 138.46289069 354.8338189 140.19981521 354.84747362 C146.60465942 354.78374228 150.79576148 354.37413331 155.875 350.3125 C158.90306348 345.89435974 159.25127154 342.2715257 159.25595093 336.9876709 C159.2606309 336.27215608 159.26531087 335.55664126 159.27013266 334.81944418 C159.28205243 332.43347464 159.27263759 330.04808269 159.26318359 327.66210938 C159.26725065 325.94684007 159.27259328 324.23157338 159.27911377 322.51631165 C159.29277727 317.86552048 159.2874927 313.21492921 159.27797651 308.5641346 C159.27037493 303.69424022 159.27742691 298.82436283 159.28213501 293.95446777 C159.2875911 285.77674287 159.28040477 277.59909928 159.26611328 269.42138672 C159.24978706 259.97031116 159.25507567 250.51942976 159.2715925 241.0683589 C159.28521151 232.95014774 159.28712499 224.831995 159.27927649 216.71377611 C159.27460227 211.86674346 159.27396825 207.01980204 159.28388596 202.17277527 C159.29255937 197.61563731 159.28652684 193.0587494 159.26920319 188.50163841 C159.26524035 186.83032331 159.26636892 185.15898712 159.27299118 183.48768044 C159.28120499 181.20394702 159.27088782 178.92101184 159.25595093 176.6373291 C159.25481985 175.36014259 159.25368877 174.08295609 159.25252342 172.76706696 C158.7055916 167.76231101 157.09347636 164.4989112 153.5 161 C149.41544129 158.37421226 145.49556013 158.18782802 140.72183514 158.18107224 C139.69966198 158.17723109 138.67748882 158.17338995 137.62434071 158.1694324 C136.50820498 158.17029888 135.39206924 158.17116537 134.24211121 158.17205811 C133.05108632 158.16908698 131.86006143 158.16611586 130.63294488 158.1630547 C127.33041102 158.15588251 124.02792918 158.15319602 120.72539127 158.15245724 C117.16223309 158.15060396 113.59908613 158.1430553 110.03593445 158.13632202 C102.24668715 158.12275008 94.45744501 158.11671594 86.66818786 158.11231136 C81.80378279 158.10954738 76.9393797 158.10530978 72.07497597 158.10080719 C58.60419305 158.08861671 45.13341172 158.0783165 31.66262341 158.0749321 C30.80076902 158.07471253 29.93891464 158.07449297 29.05094345 158.07426675 C27.7550925 158.07393933 27.7550925 158.07393933 26.43306273 158.0736053 C24.68250732 158.07316183 22.9319519 158.07271527 21.18139648 158.07226562 C20.31306296 158.0720442 19.44472944 158.07182277 18.55008278 158.07159463 C4.47815316 158.0676461 -9.59372469 158.05018944 -23.66563431 158.0269061 C-38.11643188 158.003189 -52.56720347 157.99073011 -67.01802081 157.98956418 C-75.13030136 157.9886477 -83.24251443 157.98290197 -91.35477638 157.96474457 C-98.2619204 157.94933883 -105.16897607 157.94422595 -112.076134 157.95248267 C-115.59916499 157.95638733 -119.1220181 157.95546871 -122.64502716 157.94142532 C-126.46714815 157.92632911 -130.28901927 157.93455828 -134.11116028 157.94500732 C-135.77532564 157.93292272 -135.77532564 157.93292272 -137.4731105 157.92059398 C-144.94879947 157.96842291 -151.27829678 158.17349589 -156.59367466 164.03465939 Z " fill="#000000" transform="translate(256.125,-0.3125)"/>
<path d="M0 0 C64.35 0 128.7 0 195 0 C196.98 5.94 196.98 5.94 199 12 C204.99136313 24.30343184 214.44176195 31.93788026 227 37 C231.95 38.485 231.95 38.485 237 40 C237 66.07 237 92.14 237 119 C233.37 119.99 229.74 120.98 226 122 C214.53361869 126.81304894 206.13140861 134.16309175 200 145 C198.35 149.29 196.7 153.58 195 158 C130.65 158 66.3 158 0 158 C-1.65 154.04 -3.3 150.08 -5 146 C-11.58058674 133.29793722 -20.5388694 125.89933751 -34 121 C-36.64 120.34 -39.28 119.68 -42 119 C-42 92.93 -42 66.86 -42 40 C-37.05 38.35 -32.1 36.7 -27 35 C-12.282122 25.96857486 -5.89704177 16.21686486 0 0 Z M67 40 C66.31292969 40.51304687 65.62585938 41.02609375 64.91796875 41.5546875 C55.61789995 48.98762968 50.13807278 59.37343855 48 71 C46.42593829 85.4076589 49.29301376 98.19030152 58 110 C66.78834004 120.40768869 78.26939488 127.62693949 92 129 C106.71591455 129.98587009 119.37926593 125.70153253 130.75 116.3125 C141.02981573 106.6395428 146.71713246 93.38497574 147.25 79.375 C147.06619236 65.77323489 141.70813109 54.08487915 132.453125 44.32421875 C121.02981813 33.50118119 108.75758846 29.43779092 93.21484375 29.72265625 C83.24941837 30.17779156 74.75277651 33.88638196 67 40 Z M-22 74 C-23.66426454 77.32852908 -23.38357035 80.65750376 -22.375 84.1875 C-20.3177072 86.89938596 -18.1389915 87.70601511 -15 89 C-12.1724138 89.29365306 -9.57277303 89.44482734 -6.75 89.43359375 C-5.97366211 89.4388356 -5.19732422 89.44407745 -4.39746094 89.44947815 C-2.76368399 89.45587292 -1.12986084 89.45459445 0.50390625 89.44604492 C2.99302586 89.43752387 5.47985599 89.46634591 7.96875 89.49804688 C9.56249932 89.49965897 11.15625267 89.4990812 12.75 89.49609375 C13.85649902 89.51294472 13.85649902 89.51294472 14.98535156 89.53013611 C20.11672893 89.4614597 23.0531624 88.24501784 27 85 C28.55024464 81.89951072 28.28992015 79.42105782 28 76 C26.20437595 73.24670979 24.94745078 71.47372539 22 70 C19.14170883 69.86428312 16.30900434 69.78726079 13.44921875 69.76171875 C12.59826126 69.753647 11.74730377 69.74557526 10.87055969 69.73725891 C9.06745441 69.72341706 7.26432291 69.71269535 5.46118164 69.70483398 C2.70863933 69.68763211 -0.04269838 69.64374951 -2.79492188 69.59960938 C-4.54686617 69.58948137 -6.29882067 69.5809656 -8.05078125 69.57421875 C-8.87177811 69.55671066 -9.69277496 69.53920258 -10.53865051 69.52116394 C-15.62494788 69.54038973 -18.32213452 70.14731824 -22 74 Z M167 75 C165.80904425 78.57286725 165.66754542 80.20580295 167.125 83.6875 C170.24127576 87.53090676 172.82332604 88.87412608 177.77709961 89.40405273 C179.23530887 89.43043803 180.69390718 89.43935746 182.15234375 89.43359375 C182.93009659 89.4388356 183.70784943 89.44407745 184.50917053 89.44947815 C186.14892385 89.45588187 187.7887232 89.45458274 189.4284668 89.44604492 C191.92645743 89.43753761 194.42215702 89.46631126 196.91992188 89.49804688 C198.51822849 89.49965927 200.11653912 89.49908062 201.71484375 89.49609375 C202.45564682 89.50732773 203.19644989 89.51856171 203.95970154 89.53013611 C209.10263219 89.46162058 212.08312471 88.31564772 216 85 C217.73333202 81.64254186 217.73333202 81.64254186 218 78 C216.46504498 74.24788772 214.49822877 71.99959052 211 70 C208.01376453 69.68292333 205.24104919 69.53198665 202.25390625 69.53125 C201.40577866 69.52363647 200.55765106 69.51602295 199.68382263 69.50817871 C197.89267923 69.49738863 196.10147297 69.49452018 194.31030273 69.49902344 C191.57493813 69.49999558 188.84238141 69.45836929 186.10742188 69.4140625 C184.36458917 69.40885502 182.62174674 69.40616731 180.87890625 69.40625 C180.0641835 69.38985474 179.24946075 69.37345947 178.41004944 69.35656738 C172.92458762 69.4230731 170.46886631 70.42040464 167 75 Z " fill="#000000" transform="translate(159,177)"/>
<path d="M0 0 C8.29503452 4.78302394 12.92667888 10.59118399 15.84375 19.70703125 C17.87155013 28.33725202 16.6637932 37.02567903 12.2109375 44.73046875 C6.99600493 52.16244485 0.41677929 56.64827267 -8.5 58.5 C-17.47586033 59.59201862 -25.57102534 57.91178644 -33.05078125 52.734375 C-39.03806987 47.75640017 -42.03976353 42.88070941 -44.5 35.5 C-45.2773318 24.98690594 -44.38827424 16.83644691 -38.8125 7.75 C-28.25042436 -2.52661414 -13.80897058 -6.40012742 0 0 Z " fill="#000000" transform="translate(270.5,228.5)"/>
<path d="M0 0 C7.59 0 15.18 0 23 0 C23 6.93 23 13.86 23 21 C11.79797278 17.26599093 6.82110912 14.33492558 1.03125 4.171875 C0 2 0 2 0 0 Z " fill="#000000" transform="translate(373,177)"/>
<path d="M0 0 C7.26 0 14.52 0 22 0 C20.51575258 7.42123708 16.86467697 11.37872702 11.48828125 16.38671875 C9 18 9 18 0 21 C0 14.07 0 7.14 0 0 Z " fill="#000000" transform="translate(117,177)"/>
<path d="M0 0 C0 6.6 0 13.2 0 20 C-7.59 20 -15.18 20 -23 20 C-18.86315792 10.34736848 -14.73513119 5.29732901 -5.234375 0.8125 C-3 0 -3 0 0 0 Z " fill="#000000" transform="translate(396,315)"/>
<path d="M0 0 C7.99351275 1.33225213 14.12359485 5.07807922 19.0625 11.625 C21 15 21 15 22 20 C14.74 20 7.48 20 0 20 C0 13.4 0 6.8 0 0 Z " fill="#000000" transform="translate(117,315)"/>
</svg>
