<?xml version="1.0" encoding="UTF-8"?>
<svg version="1.1" xmlns="http://www.w3.org/2000/svg" width="512" height="512">
<path d="M0 0 C4.36930268 3.69901758 8.66631885 7.47567498 12.93505859 11.29003906 C16.96720016 9.63432876 19.86911039 6.7901239 23.06005859 3.91503906 C54.64056735 -23.74049362 96.71011244 -40.37625991 138.93505859 -37.70996094 C178.29896058 -34.2928775 209.62995887 -15.82018993 235.93505859 13.29003906 C251.11183057 31.42720669 261.13250269 53.53356981 266.93505859 76.29003906 C267.11584961 76.98307129 267.29664063 77.67610352 267.48291016 78.39013672 C272.53578395 98.77742772 272.40789403 125.0384982 266.93505859 145.29003906 C266.72574707 146.07443359 266.51643555 146.85882813 266.30078125 147.66699219 C261.67763417 164.71995935 255.1904623 180.68263892 246.93505859 196.29003906 C246.58572266 196.95148926 246.23638672 197.61293945 245.87646484 198.29443359 C231.8819205 224.53420424 212.90357228 248.10906003 192.96240234 270.04785156 C191.1953866 272.00212331 189.4659233 273.98063644 187.74755859 275.97753906 C178.26451628 286.80918558 168.22424935 297.10129026 158.06005859 307.29003906 C157.56828125 307.7844046 157.07650391 308.27877014 156.56982422 308.78811646 C151.40876432 313.97060181 146.21880135 319.07164579 140.63574219 323.80371094 C138.81805449 325.39229588 137.12486507 327.06673866 135.43505859 328.79003906 C132.46770537 331.80417489 129.36160567 334.58921239 126.15771484 337.34863281 C123.60528976 339.57807967 121.11618346 341.87005288 118.62255859 344.16503906 C114.07981174 348.31249164 109.39385898 352.22236601 104.60693359 356.08300781 C102.0364681 358.20627244 99.57586496 360.40815755 97.12255859 362.66503906 C92.71522067 366.68247031 88.10349352 370.34460458 83.39111328 373.99047852 C79.10629801 377.32304845 74.96816972 380.79084047 70.87255859 384.35253906 C65.46492003 389.04477019 59.91502045 393.47637246 54.20849609 397.79785156 C51.37670505 399.94252935 48.58681497 402.13584923 45.80493164 404.34472656 C43.46974449 406.19536319 41.12192622 408.02942236 38.77050781 409.859375 C37.51146808 410.84074941 36.25542964 411.82598288 35.00195312 412.81445312 C33.05420498 414.3434813 31.09072142 415.84991766 29.12255859 417.35253906 C28.53684082 417.81781006 27.95112305 418.28308105 27.34765625 418.76245117 C22.45214303 422.44607482 16.94417094 424.73701281 10.71240234 424.04223633 C3.30188551 422.38389378 -2.54011372 416.50627436 -8.24316406 411.78515625 C-11.09980185 409.44073789 -14.02282369 407.18335457 -16.93994141 404.91503906 C-23.48371137 399.78879254 -29.93099678 394.54645066 -36.37353516 389.29394531 C-39.36137199 386.85887728 -42.36341173 384.44266493 -45.37744141 382.04003906 C-54.83324446 374.48798338 -64.09676658 366.73799772 -73.26220703 358.83837891 C-75.03980053 357.31163216 -76.82446155 355.79362198 -78.61181641 354.27832031 C-85.06328698 348.80033615 -91.38795224 343.22041325 -97.5793457 337.44946289 C-100.48906256 334.73765535 -103.42660599 332.07364342 -106.43994141 329.47753906 C-109.51354581 326.82189341 -112.36820571 324.01037937 -115.21118164 321.11132812 C-116.90762905 319.44459591 -118.64987156 317.91198579 -120.46728516 316.37988281 C-126.02800077 311.54319872 -131.19328998 306.3112055 -136.39233398 301.09301758 C-138.1238884 299.35610306 -139.860725 297.62460017 -141.59814453 295.89355469 C-146.76292385 290.73187454 -151.8541397 285.56487513 -156.5949707 280.00512695 C-158.95708919 277.2491259 -161.45741709 274.62461832 -163.93994141 271.97753906 C-169.23797104 266.27539446 -174.20968167 260.37540655 -179.06494141 254.29003906 C-179.98585326 253.16034698 -180.90778252 252.03148374 -181.83056641 250.90332031 C-198.61590316 230.29668238 -213.88745351 208.47901508 -225.06494141 184.29003906 C-225.3659375 183.65324219 -225.66693359 183.01644531 -225.97705078 182.36035156 C-234.97709933 163.24724206 -242.13425969 141.83548478 -242.26806641 120.54785156 C-242.27376648 119.82121307 -242.27946655 119.09457458 -242.28533936 118.34591675 C-242.2947366 116.81135486 -242.30130219 115.27677327 -242.30517578 113.7421875 C-242.31477091 111.45566848 -242.34579705 109.17009362 -242.37744141 106.88378906 C-242.65256893 68.84792174 -226.57793673 32.25730689 -200.06494141 5.29003906 C-198.40236805 3.61928911 -196.73534358 1.95296183 -195.06494141 0.29003906 C-194.53900391 -0.25885986 -194.01306641 -0.80775879 -193.47119141 -1.37329102 C-189.35214214 -5.62455524 -185.04346727 -9.20270104 -180.18994141 -12.58496094 C-179.45380615 -13.09816895 -178.7176709 -13.61137695 -177.95922852 -14.14013672 C-122.83817268 -51.81722708 -50.20671344 -41.57576507 0 0 Z M-112.06494141 85.29003906 C-117.30673055 92.28229724 -122.5065302 100.35545974 -123.06494141 109.29003906 C-122.09163467 114.83788745 -120.41822 117.72826567 -116.06494141 121.29003906 C-111.5867794 124.34333134 -108.36672078 124.6263995 -103.17431641 123.79003906 C-98.52393515 122.68772647 -96.60650246 121.15315199 -94.06494141 117.10253906 C-93.75041016 116.49667969 -93.43587891 115.89082031 -93.11181641 115.26660156 C-91.59035395 112.39398962 -89.79289096 109.71029908 -88.01806641 106.98925781 C-86.90187015 105.32403095 -86.90187015 105.32403095 -87.06494141 103.29003906 C-85.73160807 102.6233724 -84.39827474 101.95670573 -83.06494141 101.29003906 C-82.21931641 100.77441406 -81.37369141 100.25878906 -80.50244141 99.72753906 C-73.25068478 96.69498629 -66.25807019 96.55192041 -58.93994141 99.38769531 C-56.75170572 100.44078374 -54.92206955 101.73005142 -53.06494141 103.29003906 C-52.40494141 103.29003906 -51.74494141 103.29003906 -51.06494141 103.29003906 C-50.65501953 104.11181641 -50.65501953 104.11181641 -50.23681641 104.95019531 C-49.65673828 106.10841797 -49.65673828 106.10841797 -49.06494141 107.29003906 C-48.63697266 108.155 -48.20900391 109.01996094 -47.76806641 109.91113281 C-43.34636234 118.8207727 -43.34636234 118.8207727 -35.15478516 123.90722656 C-30.09075202 124.86344091 -26.56138901 123.92003672 -22.06494141 121.29003906 C-18.32395662 117.65538718 -15.91248429 114.28793658 -15.56494141 109.04003906 C-15.72339826 98.05897922 -23.03936527 88.27282962 -30.39306641 80.69628906 C-41.27620666 70.89509843 -55.9450036 64.50343747 -70.79541016 65.04785156 C-87.09953202 66.78770622 -101.019086 72.99100719 -112.06494141 85.29003906 Z M53.93505859 85.29003906 C51.29297373 88.81443484 49.03666987 92.42211632 46.93505859 96.29003906 C46.57541016 96.91652344 46.21576172 97.54300781 45.84521484 98.18847656 C43.39671577 102.99520746 43.15391282 108.03900361 43.93505859 113.29003906 C46.12164473 117.66321133 48.76159956 120.72905284 52.93505859 123.29003906 C58.98111295 124.75279415 62.37644031 124.43642677 67.93505859 121.29003906 C73.6672071 116.78620809 76.66709846 110.09391947 78.93505859 103.29003906 C80.62255859 102.29003906 80.62255859 102.29003906 82.93505859 101.29003906 C83.78068359 100.77441406 84.62630859 100.25878906 85.49755859 99.72753906 C92.74931522 96.69498629 99.74192981 96.55192041 107.06005859 99.38769531 C109.24829428 100.44078374 111.07793045 101.73005142 112.93505859 103.29003906 C113.59505859 103.29003906 114.25505859 103.29003906 114.93505859 103.29003906 C116.00736101 105.4101621 117.04928717 107.53653231 118.04833984 109.69238281 C120.84920743 115.61343514 123.44530565 120.15741227 129.18505859 123.66503906 C134.66787726 124.91113421 139.34940898 124.11222775 144.31005859 121.54003906 C147.82289066 118.52904015 149.3873791 115.97219751 150.81005859 111.60253906 C151.22275233 100.66615495 144.52404262 91.11551927 137.74755859 83.10253906 C126.84459376 71.44953805 112.73811677 66.25750285 97.12255859 64.97753906 C80.30503259 65.59406751 65.13322993 72.82141069 53.93505859 85.29003906 Z M-50.06494141 258.29003906 C-51.92574291 263.87244358 -52.00319489 269.34135876 -49.43994141 274.66503906 C-45.48066875 279.04107726 -42.17317228 281.47845756 -36.20776367 281.79797363 C-34.26576667 281.82165059 -32.32342502 281.82338013 -30.38134766 281.80761719 C-29.31721649 281.81462646 -28.25308533 281.82163574 -27.15670776 281.82885742 C-23.64668519 281.84643172 -20.13747188 281.83481596 -16.62744141 281.82128906 C-14.18416184 281.82398412 -11.74088332 281.82786665 -9.29760742 281.83288574 C-4.17990902 281.83878006 0.93750989 281.83021956 6.05517578 281.81152344 C12.61250556 281.78873444 19.16918045 281.80185781 25.72648621 281.82581329 C30.77084277 281.84027276 35.81504427 281.83566448 40.85940552 281.82530212 C43.27711057 281.82263528 45.69482974 281.82590309 48.11251831 281.83522034 C51.49254609 281.84538784 54.87151579 281.82988042 58.25146484 281.80761719 C59.24904816 281.81571411 60.24663147 281.82381104 61.27444458 281.83215332 C67.00956779 281.7622303 70.41394378 281.17510097 74.93505859 277.29003906 C78.87242925 272.93820834 79.56928901 269.37271008 79.32177734 263.68847656 C78.54512116 258.87163924 75.90264252 256.18505419 72.43505859 252.97753906 C68.84333251 250.55312396 65.82749503 250.16645777 61.55290222 250.14959717 C60.68244766 250.14388702 59.8119931 250.13817688 58.91516113 250.1322937 C57.96806274 250.13117584 57.02096436 250.13005798 56.04516602 250.12890625 C55.04145462 250.12394135 54.03774323 250.11897644 53.00361633 250.11386108 C49.6825797 250.09925414 46.36159083 250.09243996 43.04052734 250.08691406 C40.73130797 250.08116151 38.42208861 250.07540379 36.11286926 250.06964111 C31.26998675 250.05913538 26.42712082 250.05328987 21.58422852 250.04980469 C15.3835489 250.04432015 9.18308889 250.02029096 2.98247814 249.99183273 C-1.78822975 249.97319496 -6.55888486 249.96800014 -11.32962608 249.96646881 C-13.61533496 249.96344447 -15.90104297 249.95542334 -18.18671608 249.94228363 C-21.38693508 249.92519931 -24.58661893 249.92710941 -27.78686523 249.93359375 C-28.72789093 249.92437897 -29.66891663 249.91516418 -30.63845825 249.90567017 C-38.93096068 249.9582148 -44.48985665 251.73111582 -50.06494141 258.29003906 Z " fill="#000000" transform="translate(242.06494140625,65.7099609375)"/>
</svg>
